<?xml version="1.0" encoding="utf-8"?>
<!-- Generator: Adobe Illustrator 16.0.0, SVG Export Plug-In . SVG Version: 6.00 Build 0)  -->
<!DOCTYPE svg PUBLIC "-//W3C//DTD SVG 1.1//EN" "http://www.w3.org/Graphics/SVG/1.1/DTD/svg11.dtd">
<svg version="1.1" id="Layer_1" xmlns="http://www.w3.org/2000/svg" xmlns:xlink="http://www.w3.org/1999/xlink" x="0px" y="0px"
	 width="48px" height="48px" viewBox="0 0 48 48" enable-background="new 0 0 48 48" xml:space="preserve">
<g>
	<g>
		<path d="M35.64,30.881c-2.089,0-3.952,0.983-5.154,2.51l-12.038-6.95c0.304-0.755,0.472-1.578,0.472-2.44s-0.168-1.686-0.472-2.44
			l12.038-6.95c1.202,1.526,3.065,2.51,5.154,2.51c3.617,0,6.56-2.943,6.56-6.56S39.257,4,35.64,4c-3.616,0-6.56,2.942-6.56,6.56
			c0,0.862,0.169,1.686,0.473,2.44l-12.038,6.95c-1.202-1.526-3.065-2.51-5.154-2.51c-3.617,0-6.56,2.943-6.56,6.56
			c0,3.617,2.942,6.56,6.56,6.56c2.089,0,3.952-0.983,5.154-2.51L29.553,35c-0.304,0.755-0.473,1.578-0.473,2.44
			c0,3.617,2.943,6.56,6.56,6.56c3.617,0,6.56-2.942,6.56-6.56C42.199,33.824,39.257,30.881,35.64,30.881z M35.64,5.86
			c2.591,0,4.7,2.108,4.7,4.7s-2.109,4.699-4.7,4.699s-4.7-2.108-4.7-4.699C30.94,7.968,33.049,5.86,35.64,5.86z M12.36,28.699
			c-2.591,0-4.7-2.107-4.7-4.699c0-2.591,2.108-4.7,4.7-4.7s4.7,2.108,4.7,4.7C17.06,26.592,14.952,28.699,12.36,28.699z
			 M35.64,42.141c-2.591,0-4.7-2.109-4.7-4.7s2.109-4.7,4.7-4.7s4.7,2.109,4.7,4.7S38.23,42.141,35.64,42.141z"/>
	</g>
</g>
<g>
	<g>
		<path d="M12.36,21.235c-1.525,0-2.765,1.24-2.765,2.765c0,0.514,0.416,0.93,0.93,0.93s0.93-0.416,0.93-0.93
			c0-0.499,0.406-0.905,0.905-0.905c0.514,0,0.93-0.417,0.93-0.93C13.29,21.651,12.874,21.235,12.36,21.235z"/>
	</g>
</g>
</svg>
