<?xml version="1.0" encoding="utf-8"?>
<!-- Generator: Adobe Illustrator 16.0.0, SVG Export Plug-In . SVG Version: 6.00 Build 0)  -->
<!DOCTYPE svg PUBLIC "-//W3C//DTD SVG 1.1//EN" "http://www.w3.org/Graphics/SVG/1.1/DTD/svg11.dtd">
<svg version="1.1" id="Layer_1" xmlns="http://www.w3.org/2000/svg" xmlns:xlink="http://www.w3.org/1999/xlink" x="0px" y="0px"
	 width="48px" height="48px" viewBox="0 0 48 48" enable-background="new 0 0 48 48" xml:space="preserve">
<g>
	<path d="M21.272,33.612c-0.168,0-0.339-0.036-0.498-0.11c-0.414-0.194-0.678-0.609-0.678-1.066V15.564
		c0-0.457,0.264-0.872,0.678-1.066c0.413-0.193,0.902-0.13,1.252,0.162l10.123,8.436c0.27,0.224,0.424,0.555,0.424,0.904
		s-0.154,0.681-0.424,0.904L22.026,33.34C21.811,33.52,21.543,33.612,21.272,33.612z M22.45,18.078v11.844L29.557,24L22.45,18.078z"
		/>
	<path d="M24.131,44c-3.352,0-6.722-0.836-9.774-2.555c-0.566-0.318-0.768-1.037-0.448-1.604c0.318-0.566,1.036-0.768,1.604-0.447
		c6.867,3.865,15.56,2.67,21.138-2.91c6.883-6.885,6.883-18.084,0-24.969c-6.885-6.884-18.085-6.884-24.968,0
		c-6.883,6.885-6.883,18.084,0,24.969c0.46,0.459,0.46,1.205,0,1.664c-0.459,0.46-1.205,0.46-1.664,0
		c-7.802-7.802-7.802-20.495,0-28.297c7.802-7.801,20.494-7.802,28.296,0s7.803,20.495,0,28.297C34.473,41.992,29.324,44,24.131,44z
		"/>
</g>
</svg>
