<?xml version="1.0" encoding="utf-8"?>
<!-- Generator: Adobe Illustrator 16.0.0, SVG Export Plug-In . SVG Version: 6.00 Build 0)  -->
<!DOCTYPE svg PUBLIC "-//W3C//DTD SVG 1.1//EN" "http://www.w3.org/Graphics/SVG/1.1/DTD/svg11.dtd">
<svg version="1.1" id="Layer_1" xmlns="http://www.w3.org/2000/svg" xmlns:xlink="http://www.w3.org/1999/xlink" x="0px" y="0px"
	 width="40px" height="40px" viewBox="0 0 40 40" enable-background="new 0 0 40 40" xml:space="preserve">
<g>
	<g>
		<path d="M39.131,8.428c-0.48,0-0.87,0.39-0.87,0.87v22.868H20.869v-0.129c0-0.976,0.794-1.77,1.77-1.77h11.934
			c0.995,0,1.805-0.809,1.805-1.805V7.847c0-0.966-0.786-1.752-1.752-1.752H22.639c-1.051,0-1.995,0.465-2.639,1.2
			c-0.644-0.734-1.587-1.2-2.638-1.2H5.375c-0.966,0-1.752,0.786-1.752,1.752v0.582H0.87c-0.48,0-0.87,0.39-0.87,0.87v23.738
			c0,0.479,0.389,0.87,0.87,0.87h38.261c0.48,0,0.869-0.391,0.869-0.87V9.298C40,8.818,39.611,8.428,39.131,8.428z M20.869,9.602
			c0-0.975,0.794-1.769,1.77-1.769h11.986c0.007,0,0.013,0.006,0.013,0.013v20.616c0,0.037-0.029,0.066-0.065,0.066H22.639
			c-0.645,0-1.25,0.174-1.77,0.479V9.602L20.869,9.602z M19.13,32.166H1.739V10.167h1.884v18.348c0,0.967,0.786,1.752,1.752,1.752
			h11.986c0.975,0,1.769,0.794,1.769,1.77V32.166L19.13,32.166z M19.13,29.008c-0.52-0.305-1.124-0.479-1.769-0.479H5.375
			c-0.007,0-0.013-0.006-0.013-0.014V7.847c0-0.007,0.006-0.013,0.013-0.013h11.986c0.975,0,1.769,0.793,1.769,1.769V29.008
			L19.13,29.008z"/>
	</g>
</g>
<rect x="20.458" y="7.521" width="14.667" height="21.729"/>
</svg>
