<?xml version="1.0" encoding="utf-8"?>
<!-- Generator: Adobe Illustrator 16.0.0, SVG Export Plug-In . SVG Version: 6.00 Build 0)  -->
<!DOCTYPE svg PUBLIC "-//W3C//DTD SVG 1.1//EN" "http://www.w3.org/Graphics/SVG/1.1/DTD/svg11.dtd">
<svg version="1.1" id="Layer_1" xmlns="http://www.w3.org/2000/svg" xmlns:xlink="http://www.w3.org/1999/xlink" x="0px" y="0px"
	 width="48px" height="48px" viewBox="0 0 48 48" enable-background="new 0 0 48 48" xml:space="preserve">
<g>
	<path d="M20.028,35.708c3.6,0,6.874-1.276,9.427-3.438l11.457,11.458c0.262,0.262,0.59,0.392,0.948,0.392
		c0.361,0,0.689-0.13,0.951-0.392c0.523-0.523,0.523-1.375,0-1.899L31.354,30.372c2.128-2.553,3.438-5.858,3.438-9.427
		c0-8.15-6.612-14.763-14.763-14.763c-8.118,0-14.763,6.645-14.763,14.763C5.266,29.096,11.91,35.708,20.028,35.708z M20.028,8.867
		c6.678,0,12.078,5.434,12.078,12.079c0,6.678-5.4,12.078-12.078,12.078S7.95,27.591,7.95,20.945
		C7.95,14.3,13.383,8.867,20.028,8.867z"/>
</g>
</svg>
