<?xml version="1.0" encoding="utf-8"?>
<!-- Generator: Adobe Illustrator 16.0.0, SVG Export Plug-In . SVG Version: 6.00 Build 0)  -->
<!DOCTYPE svg PUBLIC "-//W3C//DTD SVG 1.1//EN" "http://www.w3.org/Graphics/SVG/1.1/DTD/svg11.dtd">
<svg version="1.1" id="Layer_1" xmlns="http://www.w3.org/2000/svg" xmlns:xlink="http://www.w3.org/1999/xlink" x="0px" y="0px"
	 width="48px" height="48px" viewBox="0 0 48 48" enable-background="new 0 0 48 48" xml:space="preserve">
<g>
	<g id="Fullscreen">
		<path d="M44.292,4.727c0-0.708-0.561-1.268-1.269-1.268H31.628c-0.719,0-1.256,0.568-1.256,1.289c0,0.719,0.537,1.248,1.256,1.248
			h10.128l-0.02,10.174c0,0.721,0.547,1.269,1.268,1.269c0.72-0.002,1.269-0.548,1.269-1.269l0.02-11.424
			c0-0.004-0.002-0.006-0.002-0.009C44.29,4.733,44.292,4.73,44.292,4.727z"/>
		<path d="M16.411,3.458H5.016c-0.003,0-0.006,0.001-0.01,0.001C5.003,3.46,5,3.458,4.997,3.458c-0.708,0-1.269,0.56-1.269,1.268
			L3.708,16.15c0,0.722,0.568,1.259,1.289,1.259c0.719,0,1.248-0.538,1.248-1.259L6.266,5.995h10.145
			c0.721,0,1.269-0.548,1.269-1.269C17.678,4.006,17.13,3.458,16.411,3.458z"/>
		<path d="M16.372,41.506H6.245V31.359c0-0.72-0.548-1.268-1.269-1.268s-1.268,0.548-1.268,1.268v11.395
			c0,0.004,0.001,0.006,0.001,0.01s-0.001,0.006-0.001,0.01c0,0.708,0.56,1.269,1.268,1.269h11.395c0.72,0,1.256-0.568,1.258-1.288
			C17.629,42.035,17.092,41.506,16.372,41.506z"/>
		<path d="M43.004,30.122c-0.721,0-1.25,0.537-1.248,1.256v10.128H31.609c-0.72,0-1.268,0.548-1.268,1.268s0.548,1.269,1.268,1.269
			h11.395c0.004,0,0.006-0.002,0.01-0.002s0.006,0.002,0.01,0.002c0.708,0,1.269-0.561,1.269-1.269V31.378
			C44.292,30.659,43.724,30.122,43.004,30.122z"/>
	</g>
</g>
</svg>
