<?xml version="1.0" encoding="utf-8"?>
<!-- Generator: Adobe Illustrator 16.0.0, SVG Export Plug-In . SVG Version: 6.00 Build 0)  -->
<!DOCTYPE svg PUBLIC "-//W3C//DTD SVG 1.1//EN" "http://www.w3.org/Graphics/SVG/1.1/DTD/svg11.dtd">
<svg version="1.1" xmlns="http://www.w3.org/2000/svg" xmlns:xlink="http://www.w3.org/1999/xlink" x="0px" y="0px" width="64px"
	 height="64px" viewBox="0 0 64 64" enable-background="new 0 0 64 64" xml:space="preserve">
<g id="Layer_1" display="none">
	<polygon display="inline" points="30,41.343 30,7 34,7 34,41.343 42.586,32.757 45.414,35.586 32,49 18.586,35.586 21.414,32.757 	
		"/>
	<polygon display="inline" points="2,60 2,24 18,24 18,28 6,28 6,56 58,56 58,28 46,28 46,24 62,24 62,60 	"/>
</g>
<g id="Layer_2" display="none">
	<path display="inline" d="M2,20h18V2H2V20z M6,6h10v10H6V6z"/>
	<path display="inline" d="M2,41h18V23H2V41z M6,27h10v10H6V27z"/>
	<path display="inline" d="M2,62h18V44H2V62z M6,48h10v10H6V48z"/>
	<rect x="24" y="9" display="inline" width="38" height="4"/>
	<rect x="24" y="30" display="inline" width="38" height="4"/>
	<rect x="24" y="51" display="inline" width="38" height="4"/>
</g>
<g id="Layer_3" display="none">
	<polygon display="inline" points="21.671,2.53 2.7,2.529 2.701,21.5 6.7,21.5 6.701,9.358 23.914,26.572 26.742,23.742 9.528,6.53 
		21.67,6.529 	"/>
	<polygon display="inline" points="61,21.502 61,2.53 42.029,2.531 42.029,6.529 54.172,6.531 36.957,23.744 39.787,26.572 
		57,9.358 57,21.5 	"/>
	<polygon display="inline" points="42.029,60.594 61,60.594 61,41.623 57,41.624 57,53.766 39.786,36.552 36.958,39.381 
		54.172,56.594 42.029,56.595 	"/>
	<polygon display="inline" points="2.7,41.621 2.7,60.594 21.671,60.592 21.671,56.594 9.528,56.592 26.743,39.379 23.913,36.551 
		6.7,53.766 6.7,41.623 	"/>
</g>
<g id="Layer_4" display="none">
	<path display="inline" fill="#2DB674" d="M61.989,59.172L44.333,41.516c3.539-4.181,5.678-9.587,5.678-15.494
		c0-13.255-10.745-24-24-24s-24,10.745-24,24s10.745,24,24,24c5.907,0,11.313-2.138,15.494-5.678L59.161,62L61.989,59.172z
		 M6.011,26.021c0-11.028,8.972-20,20-20c11.028,0,20,8.972,20,20s-8.972,20-20,20C14.983,46.021,6.011,37.05,6.011,26.021"/>
	<polygon display="inline" fill="#2DB674" points="28.011,15.021 24.011,15.021 24.011,25.021 14.011,25.021 14.011,29.021 
		24.011,29.021 24.011,39.021 28.011,39.021 28.011,29.021 38.011,29.021 38.011,25.021 28.011,25.021 	"/>
	<rect x="24" y="23.491" display="inline" fill="#2DB674" width="4" height="4"/>
</g>
<g id="Layer_5" display="none">
	<path display="inline" d="M53,15V5H11v10H2v36h9v8h42v-8h9V15H53z M15,9h34v6H15V9z M49,55H15V35h34V55z M58,47h-5V31H11v16H6V19h5
		h42h5V47z"/>
	<rect x="19" y="39" display="inline" width="26" height="4"/>
	<rect x="19" y="47" display="inline" width="26" height="4"/>
	<rect x="11" y="23" display="inline" width="9" height="4"/>
	<rect x="24" y="23" display="inline" width="4" height="4"/>
</g>
<g id="Layer_6" display="none">
	<polygon display="inline" points="2,62 62,62 62,30 58,30 58,58 6,58 6,6 31,6 31,6 35,6 35,2 2,2 	"/>
	<path display="inline" d="M63.746,16.496L49.008,1.771L13,38.543V53h13.709L63.746,16.496z M24.733,48.924l-8.379-0.021
		l-0.004-8.404l0.519-0.346l8.23,8.23L24.733,48.924z M27.751,45.749l-8.188-8.307l23.271-23.635l8.608,8.608L27.751,45.749z
		 M54.582,19.202l-8.635-8.505l2.626-2.626l8.607,8.606L54.582,19.202z"/>
</g>
<g id="Layer_7" display="none">
	<path display="inline" d="M62.025,59.16L44.369,41.504c3.54-4.18,5.678-9.586,5.678-15.494c0-13.255-10.744-24-24-24
		c-13.255,0-24,10.745-24,24c0,13.255,10.745,24,24,24c5.907,0,11.313-2.137,15.494-5.678l17.656,17.656L62.025,59.16z M6.047,26.01
		c0-11.028,8.972-20,20-20s20,8.972,20,20c0,11.029-8.972,20-20,20S6.047,37.039,6.047,26.01"/>
</g>
<g id="Layer_8" display="none">
	<path display="inline" d="M46.25,6v49.528l-12.211-6.106l-1.789-0.894l-1.789,0.894L18.25,55.528V6H46.25z M50.25,2h-36v60l18-9
		l18,9V2z"/>
</g>
<g id="Layer_22" display="none">
	<path display="inline" d="M50.25,2h-36v60l18-9l18,9V2z"/>
</g>
<g id="Layer_9" display="none">
	<path display="inline" fill="#2DB674" d="M32,2C15.431,2,2,15.431,2,32c0,16.568,13.431,30,30,30c16.568,0,30-13.432,30-30
		C62,15.431,48.568,2,32,2 M32,58C17.664,58,6,46.336,6,32S17.664,6,32,6s26,11.664,26,26S46.336,58,32,58"/>
	<rect x="12" y="30" display="inline" fill="#2DB674" width="40" height="4"/>
	<rect x="30" y="12" display="inline" fill="#2DB674" width="4" height="40"/>
</g>
<g id="Layer_10" display="none">
	<path display="inline" d="M32,2C15.431,2,2,15.431,2,32c0,16.568,13.431,30,30,30s30-13.432,30-30C62,15.431,48.569,2,32,2 M32,58
		C17.664,58,6,46.336,6,32S17.664,6,32,6s26,11.664,26,26S46.336,58,32,58"/>
	<polygon display="inline" points="44.586,51.414 25.171,32 44.586,12.586 47.414,15.414 30.829,32 47.414,48.586 	"/>
	<rect x="19.667" y="12" display="inline" width="4" height="40"/>
</g>
<g id="Layer_12" display="none">
	<path display="inline" d="M32,2C15.431,2,2,15.431,2,32c0,16.568,13.431,30,30,30s30-13.432,30-30C62,15.431,48.569,2,32,2 M32,58
		C17.664,58,6,46.336,6,32S17.664,6,32,6s26,11.664,26,26S46.336,58,32,58"/>
	<polygon display="inline" points="37.586,51.414 18.171,32 37.586,12.586 40.414,15.414 23.829,32 40.414,48.586 	"/>
</g>
<g id="Layer_13" display="none">
	<path display="inline" d="M2,32c0,16.568,13.431,30,30,30c16.568,0,30-13.432,30-30C62,15.431,48.569,2,32,2
		C15.432,2,2,15.431,2,32 M6,32C6,17.664,17.664,6,32,6s26,11.664,26,26S46.336,58,32,58C17.663,58,6,46.336,6,32"/>
	<polygon display="inline" points="25.414,51.414 44.829,32 25.414,12.586 22.586,15.414 39.171,32 22.586,48.586 	"/>
</g>
<g id="Layer_11" display="none">
	<path display="inline" d="M32,62c16.569,0,30-13.432,30-30S48.569,2,32,2S2,15.432,2,32S15.431,62,32,62 M32,6
		c14.336,0,26,11.664,26,26S46.336,58,32,58S6,46.336,6,32S17.664,6,32,6"/>
	<polygon display="inline" points="19.414,12.586 38.829,32 19.414,51.414 16.586,48.586 33.171,32 16.586,15.414 	"/>
	<rect x="40.334" y="12" display="inline" width="4" height="40"/>
</g>
<g id="Layer_14" display="none">
	<path display="inline" fill="#2DB674" d="M4,29h25V4H4V29z M8,8h17v17H8V8z"/>
	<path display="inline" fill="#2DB674" d="M35,29h25V4H35V29z M56,25H39V8h17V25z"/>
	<path display="inline" fill="#2DB674" d="M35,60h25V35H35V60z M39,39h17v17H39V39z"/>
	<path display="inline" fill="#2DB674" d="M4,60h25V35H4V60z M8,39h17v17H8V39z"/>
</g>
<g id="Layer_16" display="none">
	<path display="inline" d="M3.5,60h30V4h-30V60z M29.5,56h-22V8h22V56z"/>
	<rect x="11.5" y="16" display="inline" width="14" height="4"/>
	<rect x="11.5" y="25" display="inline" width="14" height="4"/>
	<rect x="11.5" y="34" display="inline" width="14" height="4"/>
	<rect x="11.5" y="43" display="inline" width="14" height="4"/>
	<path display="inline" d="M30,60h30V4H30V60z M56,56H34V8h22V56z"/>
	<rect x="38" y="16" display="inline" width="14" height="4"/>
	<rect x="38" y="25" display="inline" width="14" height="4"/>
	<rect x="38" y="34" display="inline" width="14" height="4"/>
	<rect x="38" y="43" display="inline" width="14" height="4"/>
</g>
<g id="Layer_17">
	<path d="M30,60h30V4H30V60z M56,56H34V8h22V56z"/>
	<rect x="38" y="16" width="14" height="4"/>
	<rect x="38" y="25" width="14" height="4"/>
	<rect x="38" y="34" width="14" height="4"/>
	<rect x="38" y="43" width="14" height="4"/>
	<rect x="4.25" y="4" width="4" height="4"/>
	<rect x="4.25" y="13" width="4" height="4"/>
	<rect x="4.25" y="21" width="4" height="4"/>
	<rect x="4.25" y="30" width="4" height="4"/>
	<rect x="4.25" y="38" width="4" height="4"/>
	<rect x="4.25" y="47" width="4" height="4"/>
	<rect x="21.75" y="4" width="4" height="4"/>
	<rect x="12.75" y="4" width="4" height="4"/>
	<rect x="4.25" y="56" width="4" height="4"/>
	<rect x="21.75" y="56" width="4" height="4"/>
	<rect x="12.75" y="56" width="4" height="4"/>
</g>
<g id="Layer_18" display="none">
	<polygon display="inline" fill="#2DB674" points="34,53.258 34,19.085 30,19.085 30,53.258 21.414,44.672 18.586,47.5 32,60.914 
		45.414,47.5 42.586,44.672 	"/>
	<polygon display="inline" fill="#2DB674" points="30,11.742 30,45.914 34,45.914 34,11.742 42.586,20.328 45.414,17.5 32,4.086 
		18.586,17.5 21.414,20.328 	"/>
</g>
<g id="Layer_19" display="none">
	<polygon display="inline" fill="#2DB674" points="11.242,34.5 45.415,34.5 45.415,30.5 11.242,30.5 19.828,21.914 17,19.085 
		3.586,32.5 17,45.914 19.828,43.086 	"/>
	<polygon display="inline" fill="#2DB674" points="52.758,30.5 18.586,30.5 18.586,34.5 52.758,34.5 44.172,43.086 47,45.914 
		60.414,32.5 47,19.085 44.172,21.914 	"/>
</g>
<g id="Layer_20" display="none">
	<rect x="4" y="30" display="inline" fill="#2DB674" width="56" height="4"/>
	<rect x="30" y="4.167" display="inline" fill="#2DB674" width="4" height="56"/>
	<rect x="30" y="4" display="inline" fill="#2DB674" width="4" height="56"/>
</g>
<g id="Layer_23" display="none">
	
		<rect x="-1.882" y="29.951" transform="matrix(0.7071 -0.7071 0.7071 0.7071 -13.1855 32.0692)" display="inline" width="68" height="4.001"/>
	
		<rect x="30" y="-2.167" transform="matrix(-0.7071 0.7071 -0.7071 -0.7071 77.1366 31.7145)" display="inline" width="4" height="68"/>
</g>
<g id="Layer_21" display="none">
	<rect x="4" y="30" display="inline" fill="#2DB674" width="56" height="4"/>
</g>
</svg>
