<?xml version="1.0" encoding="utf-8"?>
<!-- Generator: Adobe Illustrator 16.0.0, SVG Export Plug-In . SVG Version: 6.00 Build 0)  -->
<!DOCTYPE svg PUBLIC "-//W3C//DTD SVG 1.1//EN" "http://www.w3.org/Graphics/SVG/1.1/DTD/svg11.dtd">
<svg version="1.1" id="Layer_1" xmlns="http://www.w3.org/2000/svg" xmlns:xlink="http://www.w3.org/1999/xlink" x="0px" y="0px"
	 width="48px" height="48px" viewBox="0 0 48 48" enable-background="new 0 0 48 48" xml:space="preserve">
<g>
	<g>
		<path d="M8.43,15.173c2.377,0,4.305-1.936,4.305-4.305c0-2.369-1.928-4.313-4.305-4.313S4.125,8.491,4.125,10.86
			S6.061,15.173,8.43,15.173z M8.43,8.557c1.274,0,2.303,1.037,2.303,2.303s-1.037,2.304-2.303,2.304s-2.303-1.038-2.303-2.304
			S7.164,8.557,8.43,8.557z"/>
		<path d="M8.43,28.471c2.377,0,4.305-1.936,4.305-4.305c0-2.369-1.928-4.305-4.305-4.305s-4.305,1.928-4.305,4.305
			S6.061,28.471,8.43,28.471z M8.43,21.862c1.274,0,2.303,1.038,2.303,2.304s-1.037,2.303-2.303,2.303s-2.303-1.028-2.303-2.303
			S7.164,21.862,8.43,21.862z"/>
		<path d="M8.43,41.777c2.377,0,4.305-1.937,4.305-4.305c0-2.377-1.936-4.305-4.305-4.305s-4.305,1.936-4.305,4.305
			C4.125,39.841,6.061,41.777,8.43,41.777z M8.43,35.16c1.274,0,2.303,1.037,2.303,2.304c0,1.274-1.037,2.304-2.303,2.304
			s-2.303-1.037-2.303-2.304S7.164,35.16,8.43,35.16z"/>
		<path d="M18.493,11.865H43.12c0.556,0,1.005-0.449,1.005-1.005c0-0.555-0.449-1.004-1.005-1.004H18.493
			c-0.556,0-1.005,0.449-1.005,1.004C17.488,11.416,17.938,11.865,18.493,11.865z"/>
		<path d="M18.493,25.171H43.12c0.556,0,1.005-0.449,1.005-1.005s-0.449-1.005-1.005-1.005H18.493c-0.556,0-1.005,0.449-1.005,1.005
			S17.938,25.171,18.493,25.171z"/>
		<path d="M18.493,38.469H43.12c0.556,0,1.005-0.449,1.005-1.005s-0.449-1.005-1.005-1.005H18.493c-0.556,0-1.005,0.449-1.005,1.005
			S17.938,38.469,18.493,38.469z"/>
	</g>
</g>
</svg>
