<?xml version="1.0" encoding="utf-8"?>
<!-- Generator: Adobe Illustrator 16.0.0, SVG Export Plug-In . SVG Version: 6.00 Build 0)  -->
<!DOCTYPE svg PUBLIC "-//W3C//DTD SVG 1.1//EN" "http://www.w3.org/Graphics/SVG/1.1/DTD/svg11.dtd">
<svg version="1.1" id="Layer_1" xmlns="http://www.w3.org/2000/svg" xmlns:xlink="http://www.w3.org/1999/xlink" x="0px" y="0px"
	 width="48px" height="48px" viewBox="0 0 48 48" enable-background="new 0 0 48 48" xml:space="preserve">
<g id="Layer_16">
	<path d="M5.083,42.831h20.089V5.333H5.083V42.831z M22.493,40.152H7.761V8.011h14.731V40.152z"/>
	<rect x="10.44" y="13.368" width="9.375" height="2.679"/>
	<rect x="10.44" y="19.395" width="9.375" height="2.678"/>
	<rect x="10.44" y="25.421" width="9.375" height="2.679"/>
	<rect x="10.44" y="31.448" width="9.375" height="2.678"/>
	<path d="M22.828,42.831h20.088V5.333H22.828V42.831z M40.237,40.152H25.506V8.011h14.731V40.152z"/>
	<rect x="28.185" y="13.368" width="9.375" height="2.679"/>
	<rect x="28.185" y="19.395" width="9.375" height="2.678"/>
	<rect x="28.185" y="25.421" width="9.375" height="2.679"/>
	<rect x="28.185" y="31.448" width="9.375" height="2.678"/>
</g>
</svg>
