<?xml version="1.0" encoding="utf-8"?>
<!-- Generator: Adobe Illustrator 16.0.0, SVG Export Plug-In . SVG Version: 6.00 Build 0)  -->
<!DOCTYPE svg PUBLIC "-//W3C//DTD SVG 1.1//EN" "http://www.w3.org/Graphics/SVG/1.1/DTD/svg11.dtd">
<svg version="1.1" id="Layer_1" xmlns="http://www.w3.org/2000/svg" xmlns:xlink="http://www.w3.org/1999/xlink" x="0px" y="0px"
	 width="48px" height="48px" viewBox="0 0 48 48" enable-background="new 0 0 48 48" xml:space="preserve">
<path fill="none" d="M48,48H0V0h48V48z"/>
<g>
	<g>
		<path d="M31.483,40.903c0.169,0.169,0.387,0.253,0.61,0.253c0.225,0,0.441-0.084,0.61-0.253l6.628-6.628
			c0.337-0.337,0.337-0.876,0-1.213l-6.628-6.628c-0.337-0.337-0.877-0.337-1.213,0c-0.337,0.336-0.337,0.877,0,1.213l5.162,5.161
			H7.271c-0.477,0-0.863,0.388-0.863,0.864s0.386,0.862,0.863,0.862h29.375l-5.163,5.155C31.146,40.027,31.146,40.574,31.483,40.903
			z"/>
		<path d="M13.296,7.096l-6.628,6.628c-0.337,0.336-0.337,0.876,0,1.213l6.628,6.628c0.168,0.169,0.385,0.253,0.61,0.253
			s0.442-0.084,0.611-0.253c0.336-0.337,0.336-0.876,0-1.213L9.354,15.19h29.375c0.478,0,0.862-0.385,0.862-0.862
			s-0.385-0.863-0.862-0.863H9.347l5.162-5.155c0.337-0.337,0.337-0.877,0-1.213C14.172,6.759,13.626,6.759,13.296,7.096z"/>
	</g>
</g>
</svg>
