<?xml version="1.0" encoding="utf-8"?>
<!-- Generator: Adobe Illustrator 16.0.0, SVG Export Plug-In . SVG Version: 6.00 Build 0)  -->
<!DOCTYPE svg PUBLIC "-//W3C//DTD SVG 1.1//EN" "http://www.w3.org/Graphics/SVG/1.1/DTD/svg11.dtd">
<svg version="1.1" id="Layer_1" xmlns="http://www.w3.org/2000/svg" xmlns:xlink="http://www.w3.org/1999/xlink" x="0px" y="0px"
	 width="48px" height="48px" viewBox="0 0 48 48" enable-background="new 0 0 48 48" xml:space="preserve">
<g>
	<path d="M31.589,6.289L17.387,20.49c-0.113,0.112-0.193,0.253-0.233,0.407l-1.219,4.694c-0.08,0.308,0.009,0.634,0.233,0.858
		c0.17,0.169,0.399,0.262,0.633,0.262c0.076,0,0.151-0.008,0.226-0.028l4.695-1.218c0.154-0.04,0.294-0.123,0.408-0.235l14.2-14.2
		c0,0,0,0,0,0c0,0,0-0.001,0-0.001l2.86-2.859c0.35-0.35,0.35-0.917,0-1.266l-3.476-3.476c-0.169-0.168-0.396-0.262-0.633-0.262
		s-0.467,0.094-0.633,0.262l-2.858,2.859C31.589,6.288,31.589,6.288,31.589,6.289C31.589,6.288,31.589,6.289,31.589,6.289z
		 M21.035,23.793l-2.984,0.774l0.775-2.984L32.222,8.188l2.209,2.209L21.035,23.793z M35.082,5.328l2.209,2.209L35.697,9.13
		l-2.209-2.209L35.082,5.328z"/>
	<path d="M38.558,12.871c-0.495,0-0.896,0.401-0.896,0.896v28.775H9.569V8.303h16.575c0.494,0,0.896-0.401,0.896-0.895
		c0-0.495-0.402-0.896-0.896-0.896H8.673c-0.495,0-0.896,0.401-0.896,0.896v36.03c0,0.494,0.401,0.895,0.896,0.895h29.884
		c0.494,0,0.895-0.4,0.895-0.895V13.766C39.452,13.271,39.052,12.871,38.558,12.871z"/>
</g>
</svg>
