<?xml version="1.0" encoding="utf-8"?>
<!-- Generator: Adobe Illustrator 16.0.0, SVG Export Plug-In . SVG Version: 6.00 Build 0)  -->
<!DOCTYPE svg PUBLIC "-//W3C//DTD SVG 1.1//EN" "http://www.w3.org/Graphics/SVG/1.1/DTD/svg11.dtd">
<svg version="1.1" id="Layer_1" xmlns="http://www.w3.org/2000/svg" xmlns:xlink="http://www.w3.org/1999/xlink" x="0px" y="0px"
	 width="48px" height="48px" viewBox="0 0 48 48" enable-background="new 0 0 48 48" xml:space="preserve">
<g>
	<g>
		<path d="M45.773,8.088c-0.44-0.507-0.968-0.769-1.612-0.769H13.734c-0.645,0-1.19,0.261-1.632,0.769
			c-0.431,0.496-0.663,1.109-0.663,1.813v27.316c0,0.705,0.222,1.328,0.663,1.836c0.432,0.495,0.987,0.746,1.632,0.746h30.427
			c0.645,0,1.181-0.251,1.612-0.746c0.44-0.508,0.664-1.131,0.664-1.836V9.902C46.438,9.198,46.205,8.584,45.773,8.088z
			 M44.352,37.218c0,0.148-0.058,0.213-0.19,0.213H13.734c-0.133,0-0.189-0.064-0.189-0.213V9.902c0-0.149,0.056-0.213,0.189-0.213
			h30.427c0.133,0,0.19,0.063,0.19,0.213V37.218L44.352,37.218z"/>
		<path d="M35.45,21.233c1.132,0,2.05-0.938,2.05-2.07c0-1.088-0.918-2.006-2.05-2.006c-1.087,0-2.006,0.918-2.006,2.006
			C33.444,20.295,34.363,21.233,35.45,21.233z"/>
		<polygon points="31.129,28.341 23.446,16.731 16.484,32.758 15.555,35.127 42.169,35.127 34.98,24.585 		"/>
	</g>
</g>
<rect x="6.15" y="7.704" width="2.155" height="31.733"/>
<rect x="1.188" y="7.965" width="2.155" height="31.734"/>
</svg>
