<?xml version="1.0" encoding="utf-8"?>
<!-- Generator: Adobe Illustrator 16.0.0, SVG Export Plug-In . SVG Version: 6.00 Build 0)  -->
<!DOCTYPE svg PUBLIC "-//W3C//DTD SVG 1.1//EN" "http://www.w3.org/Graphics/SVG/1.1/DTD/svg11.dtd">
<svg version="1.1" id="Layer_1" xmlns="http://www.w3.org/2000/svg" xmlns:xlink="http://www.w3.org/1999/xlink" x="0px" y="0px"
	 width="48px" height="48px" viewBox="0 0 48 48" enable-background="new 0 0 48 48" xml:space="preserve">
<g>
	<g id="_x35__33_">
		<g>
			<path d="M26.972,19.092h-5.099v-5.109c0-0.704-0.571-1.277-1.276-1.277c-0.704,0-1.274,0.572-1.274,1.277v5.109h-5.099
				c-0.705,0-1.275,0.232-1.275,0.938s0.57,1.617,1.275,1.617h5.1v5.108c0,0.706,0.57,1.277,1.274,1.277
				c0.705,0,1.275-0.571,1.275-1.277v-5.108h5.101c0.704,0,1.273-0.572,1.273-1.278C28.247,19.663,27.677,19.092,26.972,19.092z
				 M43.781,41.863L33.238,31.49c2.761-3,4.458-6.967,4.458-11.332c0-9.337-7.691-16.905-17.179-16.905
				c-9.488,0-17.179,7.568-17.179,16.905c0,9.336,7.69,16.905,17.179,16.905c4.099,0,7.859-1.417,10.812-3.774l10.584,10.414
				c0.516,0.507,1.352,0.507,1.868,0C44.299,43.194,44.299,42.37,43.781,41.863z M20.518,34.463
				c-8.028,0-14.536-6.404-14.536-14.304S12.49,5.854,20.518,5.854c8.027,0,14.534,6.404,14.534,14.304S28.545,34.463,20.518,34.463
				z"/>
		</g>
	</g>
</g>
</svg>
