<?xml version="1.0" encoding="utf-8"?>
<!-- Generator: Adobe Illustrator 16.0.0, SVG Export Plug-In . SVG Version: 6.00 Build 0)  -->
<!DOCTYPE svg PUBLIC "-//W3C//DTD SVG 1.1//EN" "http://www.w3.org/Graphics/SVG/1.1/DTD/svg11.dtd">
<svg version="1.1" id="Layer_1" xmlns="http://www.w3.org/2000/svg" xmlns:xlink="http://www.w3.org/1999/xlink" x="0px" y="0px"
	 width="48px" height="48px" viewBox="0 0 48 48" enable-background="new 0 0 48 48" xml:space="preserve">
<g>
	<path d="M14.288,45.11h19.758c1.32,0,2.391-1.069,2.391-2.391v-6.352h3.895c1.989,0,3.603-1.622,3.603-3.603V17.83
		c0-1.989-1.621-3.603-3.603-3.603h-3.895V6.622c0-1.321-1.078-2.391-2.391-2.391H14.279c-1.32,0-2.39,1.07-2.39,2.391v7.605H8.002
		c-1.989,0-3.602,1.622-3.602,3.603v14.927c0,1.989,1.622,3.603,3.602,3.603h3.895v6.353C11.897,44.032,12.967,45.11,14.288,45.11z
		 M34.389,42.712c0,0.192-0.158,0.343-0.343,0.343H14.288c-0.192,0-0.343-0.159-0.343-0.343V26.313h20.452v16.398H34.389z
		 M13.937,6.622c0-0.192,0.159-0.343,0.342-0.343h19.759c0.192,0,0.343,0.159,0.343,0.343v7.605H13.937V6.622z M8.002,34.312
		c-0.861,0-1.554-0.702-1.554-1.555V17.83c0-0.861,0.702-1.555,1.554-1.555h32.329c0.861,0,1.555,0.702,1.555,1.555v14.927
		c0,0.861-0.702,1.555-1.555,1.555h-3.895v-9.018c0-0.568-0.46-1.02-1.028-1.02H12.917c-0.568,0-1.028,0.459-1.028,1.02v9.018H8.002
		z"/>
	<path d="M9.691,19.518C9.499,19.71,9.39,19.97,9.39,20.245c0,0.268,0.108,0.535,0.301,0.728c0.192,0.192,0.451,0.301,0.727,0.301
		c0.268,0,0.535-0.109,0.719-0.301c0.192-0.192,0.301-0.452,0.301-0.728c0-0.267-0.109-0.535-0.301-0.727
		C10.752,19.142,10.067,19.142,9.691,19.518z"/>
	<path d="M30.577,33.668h-8.792c-0.568,0-1.028,0.46-1.028,1.028s0.46,1.028,1.028,1.028h8.801c0.568,0,1.028-0.46,1.028-1.028
		C31.605,34.119,31.146,33.668,30.577,33.668z"/>
	<path d="M30.577,38.299h-8.792c-0.568,0-1.028,0.459-1.028,1.027s0.46,1.028,1.028,1.028h8.801c0.568,0,1.028-0.46,1.028-1.028
		C31.605,38.758,31.146,38.299,30.577,38.299z"/>
	<path d="M30.577,29.029h-8.792c-0.568,0-1.028,0.46-1.028,1.028s0.46,1.028,1.028,1.028h8.801c0.568,0,1.028-0.46,1.028-1.028
		S31.146,29.029,30.577,29.029z"/>
	<circle cx="17.731" cy="30.049" r="1.187"/>
	<circle cx="17.731" cy="34.688" r="1.187"/>
	<path d="M17.731,38.14c-0.652,0-1.187,0.526-1.187,1.187c0,0.652,0.527,1.188,1.187,1.188s1.187-0.526,1.187-1.188
		C18.91,38.666,18.383,38.14,17.731,38.14z"/>
</g>
</svg>
